<?xml version="1.0" standalone="no"?>
<!DOCTYPE svg PUBLIC "-//W3C//DTD SVG 20010904//EN"
 "http://www.w3.org/TR/2001/REC-SVG-20010904/DTD/svg10.dtd">
<svg version="1.0" xmlns="http://www.w3.org/2000/svg"
 width="260.000000pt" height="260.000000pt" viewBox="0 0 260.000000 260.000000"
 preserveAspectRatio="xMidYMid meet">
<metadata>
Created by potrace 1.14, written by Peter Selinger 2001-2017
</metadata>
<g transform="translate(0.000000,260.000000) scale(0.100000,-0.100000)"
fill="#000000" stroke="none">
<path d="M0 2511 c0 -62 4 -91 13 -94 9 -4 9 -6 0 -6 -10 -1 -12 -148 -12
-658 l0 -658 35 85 c46 113 123 369 139 465 4 21 27 82 52 135 92 193 160 364
178 447 21 101 25 8 22 -516 -2 -308 -5 -563 -8 -565 -3 -3 -97 -17 -209 -31
-112 -14 -206 -28 -209 -30 -7 -8 11 -6 211 20 227 30 204 29 212 9 3 -8 2
-13 -2 -10 -4 2 -23 -3 -42 -11 -22 -10 -75 -17 -140 -19 -58 -2 -135 -8 -172
-14 -66 -11 -68 -13 -68 -41 0 -16 2 -29 4 -29 2 0 23 9 47 19 67 29 207 55
233 43 12 -6 30 -14 41 -18 19 -7 19 -7 2 -11 -11 -3 -16 -10 -13 -19 3 -9 1
-12 -4 -9 -6 3 -10 1 -10 -5 0 -6 -4 -9 -9 -6 -5 4 -20 2 -33 -3 -17 -7 -18
-10 -5 -10 9 -1 17 -6 17 -12 0 -5 4 -8 9 -4 10 6 61 -40 61 -55 0 -13 79 -92
112 -113 26 -16 27 -16 48 10 11 14 23 23 27 20 3 -4 -10 -24 -30 -46 -40 -45
-57 -76 -77 -141 -8 -25 -20 -55 -28 -68 -13 -20 -13 -25 1 -40 9 -9 20 -29
26 -45 l11 -27 143 0 143 0 27 -28 c15 -16 24 -32 20 -37 -5 -4 -3 -5 3 -2 11
6 67 -44 65 -60 -1 -4 2 -8 7 -9 58 -6 197 -74 252 -124 l45 -41 -64 40 c-79
50 -106 56 -258 56 l-122 0 -3 25 c-4 37 -48 56 -85 36 -33 -17 -81 -66 -65
-66 6 0 16 -9 22 -20 18 -34 -13 -24 -32 10 -9 17 -22 30 -28 30 -6 0 -8 -4
-5 -10 10 -16 -11 -12 -25 5 -7 8 -16 13 -20 10 -4 -3 -10 2 -14 10 -6 18 -5
18 31 5 26 -9 27 -9 9 5 -24 18 -53 20 -59 3 -2 -7 -4 2 -3 19 1 24 6 33 18
33 9 0 20 9 23 21 6 16 -1 28 -31 53 -21 17 -42 30 -46 28 -4 -1 -8 4 -8 10
-1 7 -11 26 -24 42 -19 23 -29 27 -50 22 -28 -7 -36 -26 -11 -26 8 0 15 -5 15
-11 0 -6 7 -8 16 -5 9 4 23 1 30 -5 23 -19 -20 -42 -75 -40 -81 3 -91 3 -117
-3 -16 -4 -22 -11 -18 -19 4 -7 -2 -4 -13 6 -20 17 -20 17 -12 -30 4 -27 8
-57 8 -68 -1 -43 -21 42 -24 98 -2 45 -8 64 -26 83 l-24 26 -6 -24 c-4 -13 -8
-43 -9 -68 l-2 -45 -8 35 c-5 19 -6 38 -3 43 11 19 9 64 -4 64 -10 0 -13 -55
-13 -264 l0 -263 1189 0 c942 0 1191 3 1195 13 5 9 7 9 12 0 4 -9 35 -13 105
-13 l99 0 0 370 0 371 -22 9 -23 9 23 0 22 1 0 651 c0 575 -2 650 -15 645 -8
-3 -15 -1 -15 4 0 6 7 10 15 10 13 0 15 36 15 265 l0 265 -341 0 c-224 0 -338
-3 -334 -10 3 -5 -1 -10 -10 -10 -9 0 -13 5 -10 10 4 6 -15 10 -49 10 -34 0
-56 -5 -59 -12 -4 -10 -6 -10 -6 0 -1 6 -6 12 -12 12 -5 0 -7 -6 -3 -12 5 -9
2 -9 -9 1 -14 11 -17 11 -17 0 0 -10 -3 -11 -8 -3 -4 8 -47 12 -119 12 -97 1
-112 -1 -116 -16 -4 -16 -5 -16 -6 1 0 9 -8 17 -16 17 -14 0 -19 -12 -16 -32
2 -14 -42 -1 -54 15 -7 9 -21 17 -33 17 -16 0 -19 -5 -16 -22 l5 -23 -10 23
c-15 32 -29 27 -34 -10 l-4 -33 -1 33 c-2 29 -4 32 -21 22 -14 -7 -21 -6 -24
3 -3 6 -6 -2 -6 -20 -1 -17 -6 -35 -12 -39 -8 -5 -10 3 -7 25 3 18 1 34 -4 37
-4 3 -8 1 -8 -5 0 -10 -415 -7 -593 4 -49 3 -87 2 -84 -2 3 -4 -8 -8 -24 -8
-16 0 -29 3 -29 8 0 4 -115 7 -255 7 l-255 0 0 -89z m1726 47 c-7 -58 -18 -98
-27 -98 -5 0 -8 -3 -7 -7 1 -5 -2 -20 -6 -36 -11 -36 15 -77 49 -77 30 0 39
15 38 60 l-1 35 7 -35 8 -35 16 37 c9 20 14 45 10 55 -5 14 -3 15 7 6 34 -31
-33 -133 -89 -133 -60 0 -77 74 -36 156 8 17 16 47 17 67 2 20 7 37 11 37 4 0
6 -15 3 -32z m271 26 c-3 -3 -12 -4 -19 -1 -8 3 -5 6 6 6 11 1 17 -2 13 -5z
m-857 -18 c0 -3 -4 -8 -10 -11 -5 -3 -10 -1 -10 4 0 6 5 11 10 11 6 0 10 -2
10 -4z m710 -13 c0 -5 -5 -15 -10 -23 -8 -12 -10 -11 -10 8 0 12 5 22 10 22 6
0 10 -3 10 -7z m160 3 c0 -3 -4 -8 -10 -11 -5 -3 -10 -1 -10 4 0 6 5 11 10 11
6 0 10 -2 10 -4z m-1460 -26 c0 -11 -4 -20 -9 -20 -5 0 -7 9 -4 20 3 11 7 20
9 20 2 0 4 -9 4 -20z m36 -8 c-9 -9 -19 -12 -23 -8 -5 5 -2 11 5 13 6 3 10 9
7 14 -4 5 1 6 10 3 15 -6 15 -8 1 -22z m785 -98 c1 -34 -4 -71 -10 -83 -7 -12
-9 -27 -5 -33 4 -6 3 -8 -3 -5 -6 4 -16 0 -23 -8 -16 -19 -64 -19 -80 0 -9 10
-9 15 -1 15 6 0 11 -4 11 -10 0 -5 11 -10 24 -10 17 0 34 12 52 35 26 35 27
39 22 133 -4 67 -3 86 3 62 5 -19 10 -62 10 -96z m-316 107 c3 -5 1 -12 -5
-16 -5 -3 -10 1 -10 9 0 18 6 21 15 7z m85 -17 c0 -17 -22 -14 -28 4 -2 7 3
12 12 12 9 0 16 -7 16 -16z m860 -9 c0 -8 -4 -15 -10 -15 -5 0 -10 7 -10 15 0
8 5 15 10 15 6 0 10 -7 10 -15z m-730 -27 c0 -19 -16 -5 -17 14 -2 18 0 20 7
8 5 -8 10 -18 10 -22z m175 22 c8 -13 -5 -13 -25 0 -13 8 -13 10 2 10 9 0 20
-4 23 -10z m342 4 c-3 -3 -12 -4 -19 -1 -8 3 -5 6 6 6 11 1 17 -2 13 -5z
m-732 -13 c3 -5 1 -12 -5 -16 -5 -3 -10 1 -10 9 0 18 6 21 15 7z m282 -23 c-3
-7 -5 -2 -5 12 0 14 2 19 5 13 2 -7 2 -19 0 -25z m-245 -5 c-6 -2 -10 -9 -7
-14 4 -5 -1 -6 -10 -2 -13 5 -14 7 -3 14 7 5 18 8 23 8 6 0 4 -3 -3 -6z
m-1019 -22 c3 -14 1 -18 -9 -14 -15 6 -18 16 -7 26 9 10 10 9 16 -12z m1144
-13 c-3 -8 -6 -5 -6 6 -1 11 2 17 5 13 3 -3 4 -12 1 -19z m-319 -2 c7 -4 16
-5 21 -2 5 4 17 3 26 0 13 -5 15 -17 12 -60 -2 -29 1 -58 6 -63 7 -7 6 -15 -3
-26 -7 -9 -8 -15 -2 -15 14 0 30 -74 36 -168 2 -23 6 -46 10 -49 3 -3 1 -12
-6 -20 -9 -11 -7 -15 10 -20 12 -3 19 -9 16 -14 -3 -5 0 -8 7 -7 6 2 14 -3 17
-11 3 -9 0 -11 -8 -6 -9 6 -9 3 0 -14 9 -17 9 -26 -1 -37 -9 -11 -6 -15 17
-20 22 -4 29 -11 29 -30 0 -29 -3 -30 -21 -6 -13 16 -13 16 -14 0 0 -10 -5
-18 -11 -18 -5 0 -7 5 -3 12 5 7 2 9 -8 5 -10 -3 -19 3 -27 19 -9 20 -8 24 7
25 16 1 16 2 0 6 -17 4 -23 19 -30 68 -2 11 -10 26 -18 33 -8 8 -10 11 -4 8 7
-3 14 1 17 9 4 9 1 12 -9 8 -7 -3 -14 0 -14 5 0 25 -21 63 -31 56 -8 -4 -8 -9
0 -17 7 -7 7 -15 -2 -26 -9 -11 -9 -13 0 -8 6 4 14 3 18 -3 3 -5 1 -10 -4 -10
-6 0 -11 -9 -11 -19 0 -11 -4 -22 -9 -25 -13 -9 -34 22 -27 39 3 9 2 13 -4 10
-17 -11 -11 7 8 21 14 12 14 13 1 8 -18 -6 -34 21 -23 38 3 5 -3 18 -13 28
-27 24 -46 11 -50 -34 -2 -34 -1 -36 30 -36 32 0 32 0 29 -45 -3 -28 -9 -45
-17 -45 -38 0 -60 -141 -31 -198 8 -16 12 -39 9 -52 -5 -19 1 -30 27 -51 28
-24 35 -26 47 -13 8 7 11 19 7 26 -6 10 -5 11 8 1 8 -7 19 -9 23 -5 5 4 5 1 1
-6 -11 -18 11 -41 34 -35 14 4 22 -2 29 -19 5 -13 16 -30 24 -37 9 -7 19 -37
23 -67 3 -30 10 -54 15 -54 5 0 4 -12 -1 -26 -9 -22 -8 -25 7 -22 10 2 17 10
16 16 -2 7 4 12 13 12 11 0 14 -6 8 -22 -4 -13 -11 -26 -17 -29 -5 -4 -1 -9 9
-12 15 -4 14 -5 -6 -6 -22 -1 -23 -3 -7 -12 9 -5 17 -17 17 -25 0 -9 5 -12 11
-8 6 3 4 -5 -5 -19 -13 -20 -14 -26 -4 -30 10 -4 10 -8 -2 -16 -12 -9 -10 -11
13 -11 19 0 27 -5 27 -17 0 -13 -3 -14 -12 -5 -15 15 -32 16 -23 2 3 -6 -5
-10 -19 -10 -16 0 -27 7 -31 21 -5 14 -10 17 -19 10 -6 -6 -21 -10 -31 -10
-11 0 -34 -3 -51 -7 -20 -4 -34 -1 -39 6 -6 9 1 10 25 5 23 -5 30 -4 26 4 -4
7 -1 9 8 5 14 -5 14 -3 0 25 -18 36 -29 41 -18 9 6 -21 6 -21 -10 -5 -21 21
-27 22 -20 3 3 -7 -2 -16 -10 -19 -16 -6 -20 8 -20 65 0 9 -3 15 -8 12 -11 -7
1 46 14 62 5 7 24 10 45 7 33 -5 36 -4 24 11 -10 12 -10 16 -2 16 8 0 5 7 -5
18 -17 16 -17 17 0 20 9 2 23 -2 31 -8 11 -9 15 -10 15 -1 0 7 -16 19 -35 27
-44 18 -46 18 -38 -3 6 -15 5 -16 -9 -3 -20 18 -5 42 20 33 9 -3 14 -3 10 2
-4 4 -3 14 2 20 8 9 6 14 -4 18 -9 4 -13 1 -10 -6 2 -7 -10 -21 -28 -32 -34
-20 -82 -30 -73 -15 3 4 -1 10 -7 13 -13 5 -7 8 38 22 9 3 12 10 8 17 -6 9 -9
9 -12 0 -5 -16 -22 -15 -22 1 0 9 -12 14 -29 15 -23 0 -30 -5 -35 -24 -11 -41
-26 -16 -26 42 0 33 -4 54 -11 54 -7 0 -10 -11 -7 -27 3 -16 2 -41 -2 -58 -7
-28 -8 -27 -10 15 -2 32 -4 37 -7 18 -3 -21 -10 -28 -26 -28 -12 0 -30 -7 -39
-14 -18 -14 -24 -27 -10 -25 18 3 27 -2 17 -9 -21 -15 -65 -74 -65 -87 0 -7
11 -15 23 -19 19 -4 24 -12 24 -40 0 -19 -3 -33 -7 -31 -3 2 -20 6 -36 9 -16
3 -30 9 -32 14 -1 5 -15 7 -30 4 -24 -3 -28 0 -30 22 -1 22 2 26 23 26 14 0
25 6 25 13 0 8 4 7 10 -3 8 -12 10 -11 10 6 0 24 31 64 51 64 8 0 6 5 -6 14
-11 8 -25 12 -32 9 -7 -3 -13 0 -13 7 0 9 -4 9 -17 -1 -13 -11 -17 -11 -20 -1
-3 6 -9 10 -13 7 -5 -3 -5 7 1 23 9 25 17 29 69 38 39 7 61 7 63 0 5 -14 46
30 42 46 -9 37 -18 58 -26 58 -5 0 -9 -5 -9 -11 0 -22 -144 13 -147 36 -1 6
-12 13 -25 16 -31 8 53 17 144 15 62 -1 67 1 62 18 -3 10 -7 25 -8 32 -3 21
-6 22 -86 29 -77 7 -100 17 -100 42 0 8 -4 11 -10 8 -5 -3 -10 -1 -10 4 0 6 9
11 20 11 11 0 20 5 20 10 0 6 32 10 75 10 41 0 75 4 75 9 0 4 -19 7 -42 5 -31
-3 -39 -1 -28 6 30 19 93 8 84 -15 -3 -7 -1 -16 5 -20 6 -3 11 1 10 12 -1 25
-17 71 -18 54 -1 -11 -4 -11 -16 -1 -12 10 -15 10 -15 -1 0 -11 -3 -11 -11 1
-8 11 -12 12 -16 3 -6 -15 -61 -17 -83 -3 -10 6 -4 8 21 4 35 -6 60 8 39 21
-5 3 -10 2 -10 -3 0 -5 -6 -9 -14 -9 -8 0 -12 6 -9 13 4 10 -4 12 -31 7 -34
-5 -35 -5 -30 22 4 22 2 26 -8 19 -8 -5 -5 -1 5 9 11 9 31 18 46 18 120 7 128
9 141 41 8 22 9 22 9 3 1 -12 -5 -27 -11 -34 -11 -11 -10 -13 4 -8 12 4 15 2
11 -9 -3 -8 -2 -45 3 -82 l8 -67 7 45 c4 31 7 5 9 -85 2 -71 3 -138 2 -147 -1
-10 3 -18 9 -18 7 0 10 23 9 63 -4 102 -1 139 10 132 6 -3 10 -2 10 4 0 5 -4
13 -10 16 -15 10 -12 28 4 22 8 -3 17 1 20 9 3 8 1 14 -4 14 -6 0 -10 7 -10
16 0 8 -4 12 -10 9 -7 -4 -10 70 -10 214 0 247 -7 227 81 225 25 0 51 -4 57
-8z m105 7 c-7 -2 -19 -2 -25 0 -7 3 -2 5 12 5 14 0 19 -2 13 -5z m433 -8 c-5
17 -3 16 14 -5 32 -41 23 -53 -18 -24 -12 8 -22 22 -22 31 0 14 2 14 16 -3 15
-19 16 -19 10 1z m474 6 c0 -6 -4 -13 -10 -16 -5 -3 -10 1 -10 9 0 9 5 16 10
16 6 0 10 -4 10 -9z m-859 -48 c4 -35 2 -38 -23 -39 -23 -1 -26 2 -22 24 3 14
-1 29 -8 34 -9 6 -4 8 15 4 15 -4 27 -2 27 4 0 26 8 6 11 -27z m114 -22 c3 -6
2 -11 -3 -11 -12 0 -33 56 -24 65 4 3 10 -5 13 -19 4 -13 10 -29 14 -35z m10
49 c3 -5 1 -10 -4 -10 -6 0 -11 5 -11 10 0 6 2 10 4 10 3 0 8 -4 11 -10z m95
-10 c0 -11 -2 -20 -4 -20 -2 0 -6 9 -9 20 -3 11 -1 20 4 20 5 0 9 -9 9 -20z
m-186 -25 c5 -22 4 -26 -4 -15 -5 8 -10 24 -10 34 0 26 6 18 14 -19z m889 20
c-3 -9 -8 -14 -10 -11 -3 3 -2 9 2 15 9 16 15 13 8 -4z m-1363 -7 c-3 -3 5
-17 18 -31 19 -20 20 -25 8 -30 -9 -4 -13 -15 -11 -26 3 -15 0 -18 -13 -14
-14 5 -15 3 -4 -8 16 -18 15 -29 -3 -29 -12 0 -40 45 -35 58 2 7 -30 32 -42
33 -10 0 -10 2 0 6 6 2 12 12 12 21 0 13 -2 14 -9 4 -7 -11 -9 -10 -14 3 -4 9
-3 14 1 11 4 -2 14 0 22 5 16 10 78 8 70 -3z m1435 2 c15 13 14 -31 -1 -47
-15 -15 -38 -17 -29 -3 3 6 -1 7 -9 4 -19 -7 -20 -3 -4 31 8 17 15 22 21 16 7
-7 15 -7 22 -1z m-1545 -19 c0 -11 -3 -27 -6 -35 -5 -14 -9 -14 -22 -4 -13 11
-15 10 -9 -4 3 -10 2 -20 -3 -23 -11 -7 -13 28 -4 63 8 28 44 30 44 3z m1800
-1 c6 -11 8 -20 6 -20 -3 0 -10 9 -16 20 -6 11 -8 20 -6 20 3 0 10 -9 16 -20z
m-895 0 c3 -5 1 -10 -4 -10 -6 0 -11 5 -11 10 0 6 2 10 4 10 3 0 8 -4 11 -10z
m60 -20 c-3 -5 -13 -6 -21 -3 -12 4 -13 8 -3 14 15 9 32 2 24 -11z m-228 -12
c-3 -8 -6 -5 -6 6 -1 11 2 17 5 13 3 -3 4 -12 1 -19z m749 -15 c8 -31 15 -85
7 -65 -2 6 -9 12 -14 12 -6 0 -7 -4 -4 -10 10 -16 -11 -12 -25 5 -7 8 -19 15
-27 15 -8 0 -12 4 -8 10 3 5 13 6 22 3 12 -5 14 -3 8 7 -5 9 -4 11 4 6 6 -4 9
-12 6 -17 -4 -5 -2 -9 3 -9 16 0 23 30 12 51 -6 11 -7 19 -1 19 5 0 12 -12 17
-27z m-946 -2 c0 -11 6 -26 13 -33 7 -7 13 -40 14 -73 1 -33 5 -84 8 -113 6
-52 6 -53 -14 -42 -12 6 -22 15 -22 20 -1 6 -2 16 -3 23 -1 6 3 15 9 19 6 5 6
11 -3 20 -14 14 -16 32 -3 24 12 -8 22 20 15 39 -4 8 -10 12 -15 9 -5 -3 -9
17 -9 45 0 27 -3 56 -6 65 -3 9 -1 16 5 16 6 0 11 -9 11 -19z m81 2 c13 -17
13 -17 -6 -3 -11 8 -22 16 -24 17 -2 2 0 3 6 3 6 0 17 -8 24 -17z m306 1 c-3
-3 -12 -4 -19 -1 -8 3 -5 6 6 6 11 1 17 -2 13 -5z m533 2 c0 -2 -9 -6 -20 -9
-11 -3 -18 -1 -14 4 5 9 34 13 34 5z m-210 -31 c14 -19 14 -19 -2 -6 -10 7
-18 18 -18 24 0 6 1 8 3 6 1 -2 9 -13 17 -24z m-342 -5 c8 -8 11 -10 8 -3 -11
21 13 24 34 3 11 -11 27 -20 36 -20 8 0 13 -4 10 -9 -3 -5 1 -11 9 -15 8 -3
17 -1 20 5 4 5 12 3 21 -5 8 -9 22 -12 31 -9 10 4 14 2 10 -4 -4 -6 0 -13 8
-17 18 -6 19 -1 5 25 -13 23 -7 25 14 3 15 -14 17 -14 32 1 10 9 20 13 23 8 3
-4 12 -8 19 -9 33 -3 34 -4 22 -19 -11 -13 -10 -14 3 -9 10 3 16 16 15 30 -2
17 -7 22 -23 20 -11 -2 -14 -1 -7 1 8 3 11 12 7 21 -5 13 -2 12 15 -3 11 -10
20 -23 20 -30 0 -6 7 -20 16 -31 8 -10 12 -13 8 -5 -5 10 -3 12 5 7 7 -5 10
-15 6 -23 -4 -13 -3 -14 10 -3 8 7 15 9 16 4 0 -5 5 2 10 16 7 18 12 21 18 11
7 -10 9 -10 14 3 4 9 14 13 28 11 18 -4 21 -1 17 25 -2 16 -1 27 4 24 4 -3 8
-15 9 -27 0 -12 3 -16 6 -9 7 17 23 5 23 -17 0 -13 -7 -18 -22 -17 -19 1 -24
-5 -29 -39 -3 -22 -7 -32 -8 -22 -1 14 -6 17 -23 11 -13 -4 -30 -7 -38 -7 -8
0 -19 -5 -23 -11 -6 -7 -7 -4 -3 7 3 9 3 17 0 17 -2 0 -17 -8 -31 -17 -15 -10
-25 -13 -22 -8 3 6 -2 18 -13 28 -10 9 -18 16 -19 15 0 -2 -2 -10 -4 -18 -2
-8 -7 -25 -11 -37 -5 -19 -2 -23 14 -23 37 0 49 -10 46 -38 -2 -15 -1 -19 2
-9 4 11 15 17 32 16 15 0 21 -3 15 -6 -20 -7 -15 -23 5 -16 14 6 15 4 5 -8 -8
-9 -9 -20 -3 -29 9 -14 11 -13 14 9 2 18 16 24 16 7 0 -9 5 -14 10 -11 6 4 8
11 5 16 -4 5 -1 9 4 9 15 0 14 -15 -3 -29 -7 -6 -12 -21 -11 -34 1 -14 1 -15
-2 -3 -4 14 -11 17 -33 13 -27 -6 -80 3 -79 13 1 13 -21 60 -29 60 -5 0 -16
25 -26 55 -9 30 -21 55 -27 55 -11 0 -11 -1 -14 -125 -5 -179 -8 -202 -22
-202 -16 0 -16 2 -1 26 8 13 8 29 1 60 -6 23 -7 41 -2 41 5 0 9 5 9 10 0 6 -9
10 -19 10 -16 0 -18 -6 -15 -29 3 -19 0 -30 -10 -34 -11 -4 -14 3 -12 34 1 37
9 45 47 41 3 -1 6 6 6 14 0 8 -4 14 -9 14 -4 0 -8 9 -8 20 0 11 6 20 14 20 8
0 14 9 13 19 -1 14 -11 21 -34 26 -29 5 -31 8 -23 30 7 17 5 25 -5 29 -8 3
-12 12 -9 21 3 8 2 15 -3 15 -12 0 -13 -33 -1 -41 10 -7 0 -39 -13 -39 -13 0
-11 18 3 22 7 3 3 7 -8 10 -12 3 -21 0 -21 -6 -1 -6 -5 -29 -11 -51 l-9 -40 0
53 c0 45 4 55 21 62 12 5 15 9 7 9 -8 1 -25 -9 -38 -21 -20 -19 -23 -19 -23
-4 0 9 -7 19 -15 22 -8 4 -15 13 -15 22 0 13 -3 12 -16 -4 -8 -10 -13 -13 -9
-6 4 7 3 26 0 43 -6 26 -9 28 -23 17 -15 -11 -15 -11 -5 3 7 9 9 19 5 23 -4 4
0 6 8 4 8 -1 21 -10 28 -18z m85 5 c-3 -9 -8 -14 -10 -11 -3 3 -2 9 2 15 9 16
15 13 8 -4z m-287 -4 c-4 -5 -1 -11 5 -13 7 -2 4 -10 -7 -18 -16 -14 -17 -13
-11 3 4 10 2 17 -6 17 -8 0 -6 4 3 10 19 12 23 12 16 1z m646 -21 c-12 -11
-26 -20 -32 -20 -6 0 2 11 17 24 33 29 46 25 15 -4z m-1395 -12 c-3 -7 -5 -2
-5 12 0 14 2 19 5 13 2 -7 2 -19 0 -25z m1358 22 c-3 -5 -16 -10 -28 -9 -20 1
-20 2 3 9 14 4 26 8 28 9 2 1 0 -3 -3 -9z m644 -27 c0 -25 -1 -26 -9 -8 -12
27 -12 35 0 35 6 0 10 -12 9 -27z m-1791 -19 c12 -4 22 -11 22 -16 0 -5 -5 -6
-12 -2 -7 4 -8 3 -4 -4 4 -7 14 -12 22 -12 8 0 14 -10 14 -24 0 -23 -2 -24
-67 -21 -87 3 -83 2 -83 23 0 14 -2 15 -10 2 -5 -8 -22 -16 -37 -16 -15 -1
-22 0 -16 3 9 3 11 14 6 31 -6 24 -5 26 10 13 9 -7 14 -18 10 -24 -4 -6 -1 -7
6 -3 7 5 10 14 7 21 -2 7 2 16 10 19 8 3 14 0 14 -7 0 -7 5 -4 11 6 10 17 53
22 97 11z m556 -27 c-3 -9 -11 -17 -17 -17 -8 0 -8 3 0 11 6 6 9 19 6 28 -4
12 -3 13 6 5 6 -6 9 -18 5 -27z m1163 1 c-3 -7 -5 -2 -5 12 0 14 2 19 5 13 2
-7 2 -19 0 -25z m-1063 -13 c-4 -8 -8 -15 -10 -15 -2 0 -4 7 -4 15 0 8 4 15
10 15 5 0 7 -7 4 -15z m110 -10 c3 -8 1 -15 -4 -15 -6 0 -10 7 -10 15 0 8 2
15 4 15 2 0 6 -7 10 -15z m-977 -17 c-3 -8 -6 -5 -6 6 -1 11 2 17 5 13 3 -3 4
-12 1 -19z m786 8 c4 -10 1 -13 -8 -9 -8 3 -12 9 -9 14 7 12 11 11 17 -5z
m-38 -16 c3 -5 1 -10 -4 -10 -6 0 -11 5 -11 10 0 6 2 10 4 10 3 0 8 -4 11 -10z
m120 -48 c3 -24 1 -51 -5 -60 -11 -19 -11 -18 -13 60 -2 65 10 64 18 0z m-25
-11 c0 -34 -13 -18 -17 21 -2 24 0 29 7 18 5 -8 10 -26 10 -39z m-630 29 c0
-22 -2 -25 -18 -22 -9 2 -25 10 -36 18 -19 13 -18 14 17 14 20 0 37 -4 37 -10z
m595 0 c-3 -5 -11 -10 -16 -10 -6 0 -7 5 -4 10 3 6 11 10 16 10 6 0 7 -4 4
-10z m295 -10 c0 -5 -2 -10 -4 -10 -3 0 -8 5 -11 10 -3 6 -1 10 4 10 6 0 11
-4 11 -10z m-310 -20 c8 -5 11 -10 5 -10 -5 0 -17 5 -25 10 -8 5 -10 10 -5 10
6 0 17 -5 25 -10z m286 -8 c1 -7 0 -8 -3 -2 -3 8 -9 7 -19 -1 -12 -10 -13 -9
-8 5 7 18 26 17 30 -2z m711 -14 c12 -10 7 -38 -7 -38 -4 0 -10 10 -14 23 -5
18 -8 20 -16 7 -14 -22 -12 -40 4 -40 8 0 18 -5 22 -12 4 -6 3 -8 -4 -4 -6 3
-13 2 -17 -4 -3 -5 -1 -10 4 -10 6 0 11 -5 11 -11 0 -5 -4 -8 -9 -4 -5 3 -12
1 -16 -5 -4 -6 -16 -5 -35 5 -16 8 -39 15 -52 16 -22 0 -22 1 -3 9 11 5 14 9
8 9 -7 1 -13 6 -13 12 0 6 7 9 15 5 12 -4 13 -2 6 13 -9 16 -4 20 37 34 46 14
54 14 79 -5z m-1024 -19 c-4 -15 -8 -17 -13 -8 -10 15 -1 41 10 34 5 -3 6 -14
3 -26z m1149 21 c14 0 1 -83 -16 -95 -7 -6 -16 -24 -20 -42 -8 -33 -33 -50
-50 -33 -20 20 -29 10 -10 -11 19 -22 19 -22 -3 -8 -13 8 -23 21 -24 29 0 8
-2 24 -4 34 -4 21 7 46 32 76 12 13 26 18 47 15 26 -4 27 -3 7 3 -14 4 -26 13
-28 19 -4 12 24 23 45 17 8 -2 18 -4 24 -4z m-891 -37 c-12 -20 -14 -14 -5 12
4 9 9 14 11 11 3 -2 0 -13 -6 -23z m-744 -20 c-3 -10 -5 -4 -5 12 0 17 2 24 5
18 2 -7 2 -21 0 -30z m551 16 c2 -5 10 -9 18 -9 8 0 14 -9 14 -19 0 -10 6 -21
13 -24 10 -4 13 -20 11 -56 -3 -42 0 -51 14 -52 15 -1 15 -2 0 -6 -9 -2 -19
-11 -22 -19 -6 -17 5 -19 21 -3 13 13 25 -2 15 -18 -4 -6 -22 -8 -40 -6 -32 5
-32 6 -17 29 9 13 12 24 8 23 -34 -6 -45 2 -39 27 5 17 3 23 -4 19 -5 -3 -10
-15 -10 -26 0 -10 -4 -19 -9 -19 -5 0 -7 9 -4 19 3 10 0 29 -7 41 -14 27 -3
41 14 18 7 -10 16 -15 19 -12 10 10 -17 44 -34 44 -9 0 -19 7 -23 15 -3 8 -1
15 4 15 6 0 10 -4 10 -10 0 -5 5 -10 11 -10 6 0 7 6 2 13 -4 6 5 4 21 -6 15
-10 30 -16 34 -13 3 3 0 6 -6 6 -7 0 -12 6 -12 14 0 17 -24 28 -45 20 -10 -4
-15 0 -15 11 0 14 6 16 28 10 15 -3 29 -11 30 -16z m799 5 c-3 -3 -12 -4 -19
-1 -8 3 -5 6 6 6 11 1 17 -2 13 -5z m-1000 -68 c-9 -23 -24 -20 -30 7 -2 12
-8 31 -13 42 -6 16 -2 14 21 -7 17 -16 26 -32 22 -42z m1082 -13 c1 -10 1 -31
2 -48 0 -16 -3 -43 -8 -60 -9 -28 -10 -28 -15 -7 -3 12 -2 22 3 22 5 0 9 7 9
15 0 14 -11 19 -37 16 -7 -1 -13 3 -13 9 0 5 9 10 20 10 11 0 20 7 20 15 0 8
-4 15 -10 15 -5 0 -10 -5 -10 -12 0 -6 -2 -9 -5 -6 -10 10 8 39 21 34 8 -3 14
-1 14 4 0 18 9 10 9 -7z m-1315 -18 c-4 -8 -8 -15 -10 -15 -2 0 -4 7 -4 15 0
8 4 15 10 15 5 0 7 -7 4 -15z m1350 7 c3 -5 -1 -9 -9 -9 -8 0 -15 4 -15 9 0 4
4 8 9 8 6 0 12 -4 15 -8z m-1104 -12 c0 -5 -2 -10 -4 -10 -3 0 -8 5 -11 10 -3
6 -1 10 4 10 6 0 11 -4 11 -10z m294 -6 c5 -14 4 -15 -9 -4 -17 14 -19 20 -6
20 5 0 12 -7 15 -16z m-275 -51 c-2 -54 -2 -55 -8 -18 -6 38 -3 75 5 75 2 0 3
-26 3 -57z m471 47 c0 -5 -4 -10 -10 -10 -5 0 -10 5 -10 10 0 6 5 10 10 10 6
0 10 -4 10 -10z m-220 -10 c0 -5 -4 -10 -10 -10 -5 0 -10 5 -10 10 0 6 5 10
10 10 6 0 10 -4 10 -10z m-455 -20 c13 -15 16 -30 12 -61 -7 -50 -9 -52 -48
-52 -39 0 -51 18 -45 68 7 60 47 82 81 45z m489 -6 c5 -14 4 -15 -9 -4 -17 14
-19 20 -6 20 5 0 12 -7 15 -16z m186 6 c0 -5 -5 -10 -11 -10 -5 0 -7 -5 -4
-10 4 -6 -5 -5 -20 2 -18 8 -22 14 -13 20 18 11 48 10 48 -2z m1000 4 c0 -11
-23 -49 -34 -56 -17 -11 -23 -10 -30 8 -3 8 -2 12 4 9 6 -3 10 1 10 10 0 10 5
13 13 9 9 -6 9 -5 0 7 -10 12 -8 15 13 17 13 1 24 -1 24 -4z m-336 -20 c9 -3
13 -10 10 -15 -3 -5 0 -9 5 -9 6 0 11 -4 11 -8 0 -4 -17 -6 -37 -3 -21 2 -32
6 -25 8 6 3 12 11 12 19 0 16 2 16 24 8z m-999 -24 c3 -5 1 -10 -4 -10 -6 0
-11 5 -11 10 0 6 2 10 4 10 3 0 8 -4 11 -10z m35 -25 c0 -5 -5 -3 -10 5 -5 8
-10 20 -10 25 0 6 5 3 10 -5 5 -8 10 -19 10 -25z m810 7 c0 9 7 15 15 14 21
-3 31 -16 12 -16 -25 0 -33 -46 -13 -78 4 -7 5 -16 1 -20 -3 -3 -10 -1 -14 7
-6 10 -10 9 -15 -5 -4 -10 -1 -21 6 -25 7 -5 -1 -7 -19 -7 -19 1 -34 7 -38 16
-8 21 4 29 16 12 9 -12 10 -12 5 2 -3 11 3 23 17 33 15 10 17 15 7 16 -10 0
-11 2 -3 5 9 4 9 13 2 30 -13 36 -11 41 6 18 12 -16 14 -17 15 -2z m-500 -12
c0 -5 -6 -10 -12 -10 -7 -1 -2 -8 12 -16 14 -8 17 -13 8 -10 -10 3 -18 1 -18
-4 0 -9 14 -14 33 -11 10 1 9 -23 -4 -74 -9 -37 -18 -47 -52 -64 -27 -14 -45
-17 -51 -11 -7 7 -3 10 10 10 17 0 36 29 49 75 2 6 6 19 10 30 6 18 5 19 -7 3
-10 -11 -19 -14 -29 -7 -12 8 -12 10 1 19 11 8 7 9 -15 4 l-30 -7 23 20 c23
21 30 39 11 27 -7 -4 -10 -1 -7 6 2 7 12 14 22 16 10 1 20 5 24 8 9 9 22 7 22
-4z m838 -8 c-9 -2 -20 -12 -23 -23 -4 -11 -10 -17 -15 -14 -5 3 0 17 12 30
12 13 26 21 32 17 7 -4 5 -8 -6 -10z m-1348 0 c0 -5 -14 -9 -32 -10 -23 -1
-28 2 -18 8 19 12 50 13 50 2z m1156 -27 c-8 -27 -12 -31 -17 -17 -4 9 -3 22
2 28 5 6 6 14 2 17 -3 4 0 7 9 7 13 0 13 -6 4 -35z m-1564 18 c-6 -2 -9 -10
-6 -15 4 -6 2 -8 -4 -4 -5 3 -13 0 -15 -6 -4 -8 -6 -7 -6 4 -1 16 13 26 34 26
6 0 4 -2 -3 -5z m617 0 c-4 -25 4 -34 11 -13 6 17 8 -1 7 -56 0 -75 -2 -80
-17 -65 -9 9 -15 19 -13 23 2 3 -5 8 -14 11 -15 3 -14 6 7 15 l25 11 -27 0
c-25 1 -42 21 -18 21 6 0 10 5 10 11 0 8 -4 8 -12 2 -17 -13 -63 -1 -63 17 0
11 11 14 41 12 23 -2 45 1 49 7 7 13 16 15 14 4z m101 -3 c0 -5 -5 -10 -11
-10 -5 0 -7 5 -4 10 3 6 8 10 11 10 2 0 4 -4 4 -10z m1047 -22 c-3 -8 -6 -5
-6 6 -1 11 2 17 5 13 3 -3 4 -12 1 -19z m-1332 -19 c-4 -11 -2 -19 3 -19 5 0
7 -13 4 -28 -2 -16 -9 -29 -16 -29 -15 0 -17 69 -2 79 7 5 4 8 -7 8 -10 0 -16
4 -12 10 10 17 36 -1 30 -21z m1435 27 c0 -2 -7 -7 -16 -10 -8 -3 -12 -2 -9 4
6 10 25 14 25 6z m-1483 -12 c-3 -3 -12 -4 -19 -1 -8 3 -5 6 6 6 11 1 17 -2
13 -5z m270 -26 c-3 -7 -5 -2 -5 12 0 14 2 19 5 13 2 -7 2 -19 0 -25z m-142 0
c6 -4 2 -8 -7 -8 -10 0 -18 7 -18 17 0 9 3 12 8 7 4 -5 12 -12 17 -16z m991
-5 c-2 -16 -5 -34 -5 -40 -1 -15 -31 -18 -31 -3 0 6 4 10 9 10 5 0 12 14 16
30 8 38 17 40 11 3z m-785 -40 c-7 -12 -5 -21 7 -31 13 -10 14 -12 2 -9 -8 2
-21 -2 -28 -10 -7 -7 -21 -13 -30 -13 -12 0 -10 4 7 13 30 15 41 87 13 87 -14
0 -15 2 -2 9 20 13 45 -22 31 -46z m-471 34 c30 -21 3 -46 -48 -44 -38 2 -42
4 -42 28 0 23 4 26 36 27 20 1 44 -4 54 -11z m1610 -1 c0 -2 -8 -10 -17 -17
-16 -13 -17 -12 -4 4 13 16 21 21 21 13z m-1203 -43 c-3 -10 -5 -4 -5 12 0 17
2 24 5 18 2 -7 2 -21 0 -30z m740 -6 c17 6 17 5 -1 -15 -11 -12 -24 -22 -30
-22 -6 0 -5 4 3 9 10 6 1 11 -28 16 -22 4 -39 11 -36 15 3 5 -3 11 -12 13 -14
4 -13 5 4 6 12 0 25 6 28 11 4 7 16 1 30 -14 16 -18 30 -24 42 -19z m-1620 11
c-3 -8 -6 -5 -6 6 -1 11 2 17 5 13 3 -3 4 -12 1 -19z m749 -35 c-4 -4 -12 -1
-19 7 -9 10 -9 11 1 6 7 -4 12 -2 13 6 0 11 2 11 6 0 3 -7 2 -16 -1 -19z m705
-39 c-6 -22 -11 -54 -11 -72 0 -18 -5 -42 -10 -53 -8 -13 -7 -19 0 -19 6 0 8
-5 5 -10 -4 -6 -16 -8 -28 -5 -12 2 -16 2 -8 -1 11 -5 11 -8 0 -16 -11 -8 -10
-9 3 -5 9 3 19 -1 22 -10 4 -9 12 -13 23 -9 10 4 14 4 10 0 -4 -4 -2 -13 4
-20 5 -7 -7 -4 -28 7 -20 10 -50 19 -65 19 -33 0 -32 -2 -13 92 29 138 33 146
63 150 39 5 45 -4 33 -48z m69 36 c0 -5 -9 -6 -20 -3 -11 3 -17 9 -15 14 7 10
35 1 35 -11z m280 -37 c7 -32 25 -112 41 -177 30 -122 34 -144 23 -133 -6 6
-34 -16 -34 -27 0 -12 28 -6 33 7 7 18 16 4 20 -29 2 -17 6 -34 9 -39 3 -6 8
-28 11 -50 3 -22 3 -32 1 -22 -3 9 -9 17 -14 17 -4 0 -6 9 -3 20 4 15 2 19
-10 15 -8 -4 -17 1 -22 12 -7 17 -8 17 -16 -2 l-9 -20 3 20 c1 11 10 20 19 20
22 0 32 11 23 24 -4 8 -12 5 -23 -6 -16 -15 -18 -13 -34 38 -14 46 -17 49 -18
24 -1 -22 -100 328 -100 355 0 3 20 6 44 8 l44 3 12 -58z m-1135 27 c4 -11 11
-18 16 -15 5 4 9 1 9 -4 0 -6 -7 -11 -16 -11 -13 0 -14 -3 -4 -15 6 -8 10 -20
7 -27 -3 -8 -9 -1 -16 15 -6 16 -8 33 -5 38 3 6 0 16 -6 24 -8 10 -9 15 -2 15
6 0 14 -9 17 -20z m1392 -2 c-3 -8 -6 -5 -6 6 -1 11 2 17 5 13 3 -3 4 -12 1
-19z m-509 -17 c-12 -20 -48 -45 -54 -38 -2 2 6 14 19 28 12 13 21 27 20 31
-2 4 4 5 12 2 11 -5 12 -10 3 -23z m158 -48 c-3 -4 -12 2 -20 12 -7 10 -18 15
-24 11 -7 -4 -12 -3 -12 2 0 5 10 14 23 19 19 9 23 7 31 -14 4 -13 5 -27 2
-30z m334 -150 c0 -113 -2 -204 -5 -201 -9 9 -9 408 0 408 3 0 5 -93 5 -207z
m-1290 186 c0 -5 -4 -7 -10 -4 -6 3 -10 -4 -11 -17 0 -13 -3 -17 -6 -10 -3 7
-2 19 1 27 6 17 26 20 26 4z m278 -2 c6 3 12 -2 12 -10 0 -9 -6 -17 -12 -20
-7 -2 -10 -7 -7 -11 4 -4 15 1 25 11 17 17 17 17 11 -6 -4 -15 0 -29 10 -39
10 -11 12 -17 4 -20 -6 -2 -9 -8 -5 -13 3 -5 -1 -9 -9 -9 -8 0 -15 6 -14 13 1
33 -4 47 -18 47 -8 0 -15 8 -15 18 0 14 -2 14 -9 3 -6 -9 -4 -19 5 -28 20 -20
18 -30 -8 -45 -41 -23 -56 -18 -60 19 -2 19 0 36 4 39 4 3 8 -4 8 -16 0 -17 3
-19 19 -11 15 8 18 18 14 52 -5 37 -3 40 13 31 11 -5 25 -7 32 -5z m111 1 c0
-7 -4 -22 -9 -33 -7 -17 -9 -17 -9 -2 -1 9 -5 17 -11 17 -5 0 -10 -8 -11 -17
0 -12 -2 -13 -6 -5 -3 7 3 22 13 32 22 22 34 25 33 8z m925 -23 c-3 -7 7 -10
31 -7 19 2 35 0 35 -6 0 -5 -12 -7 -26 -4 -29 5 -47 -13 -38 -40 3 -10 1 -18
-5 -18 -7 0 -11 23 -11 58 0 37 3 52 9 43 5 -8 7 -19 5 -26z m-1281 8 c-3 -7
-11 -13 -19 -13 -7 0 -11 6 -8 13 3 8 11 14 18 14 8 0 12 -6 9 -14z m166 -16
c0 -7 -3 -6 -6 2 -4 10 -10 5 -19 -15 -7 -16 -13 -23 -13 -16 -1 21 19 53 30
47 5 -4 9 -12 8 -18z m533 -29 c-9 -9 -12 -7 -12 12 0 19 3 21 12 12 9 -9 9
-15 0 -24z m-762 -9 c0 -10 -5 -19 -11 -19 -5 0 -8 4 -5 9 4 5 1 11 -6 13 -6
2 -8 10 -4 16 10 17 26 5 26 -19z m1277 9 c-3 -8 -6 -5 -6 6 -1 11 2 17 5 13
3 -3 4 -12 1 -19z m112 -16 c-1 -15 -2 -15 -6 1 -2 9 -9 14 -15 11 -7 -4 -8
-2 -4 5 10 15 26 4 25 -17z m-1302 -17 c-16 -17 -20 -11 -12 16 5 16 9 18 15
9 4 -7 3 -19 -3 -25z m293 25 c0 -5 -5 -10 -11 -10 -5 0 -7 5 -4 10 3 6 8 10
11 10 2 0 4 -4 4 -10z m414 -25 c-6 -16 -24 -21 -24 -7 0 11 11 22 21 22 5 0
6 -7 3 -15z m-404 -4 c0 -5 -7 -14 -15 -21 -16 -14 -18 -10 -9 14 6 17 24 22
24 7z m892 -78 c1 -79 1 -109 -1 -206 -1 -18 -5 -26 -12 -21 -8 5 -10 32 -6
88 5 68 4 78 -7 64 -18 -25 -27 -22 -21 5 4 13 8 32 10 43 2 10 4 19 5 19 3 0
10 39 13 67 1 16 5 28 10 28 4 0 8 -39 9 -87z m-1228 66 c-3 -6 0 -16 7 -21
12 -8 11 -9 -1 -5 -18 4 -27 37 -10 37 6 0 8 -5 4 -11z m66 -15 c0 -14 4 -23
10 -19 6 3 10 2 10 -3 0 -5 -12 -9 -26 -9 -18 0 -24 4 -20 14 3 8 6 21 6 29 0
8 5 14 10 14 6 0 10 -12 10 -26z m760 16 c0 -5 -5 -10 -11 -10 -5 0 -7 5 -4
10 3 6 8 10 11 10 2 0 4 -4 4 -10z m-866 -16 c9 -22 -3 -32 -14 -14 -12 19
-12 30 -1 30 5 0 12 -7 15 -16z m389 -6 c5 -16 -3 -77 -12 -82 -3 -2 -6 18 -6
45 0 47 8 63 18 37z m607 2 c0 -5 -4 -10 -10 -10 -5 0 -10 -4 -10 -10 0 -5 7
-10 15 -10 17 0 19 -18 5 -40 -6 -10 -10 -11 -10 -2 0 6 -12 13 -27 13 -25 1
-24 2 7 9 24 5 7 7 -58 7 -51 0 -96 3 -99 7 -3 3 32 7 78 7 46 1 74 4 62 6
-43 8 -24 25 35 32 6 0 12 -3 12 -9z m-1380 -10 c0 -5 8 -7 18 -3 13 5 15 3 5
-7 -6 -7 -19 -10 -27 -7 -18 7 -22 27 -6 27 6 0 10 -4 10 -10z m1146 -3 c4 -4
-5 -7 -19 -7 -15 0 -27 4 -27 8 0 10 36 9 46 -1z m90 0 c4 -4 -11 -7 -34 -7
-23 0 -42 4 -42 8 0 10 66 10 76 -1z m64 3 c0 -5 -9 -10 -19 -10 -11 0 -23 5
-26 10 -4 6 5 10 19 10 14 0 26 -4 26 -10z m-1392 -25 c44 -8 55 -33 28 -64
-23 -27 -36 -77 -23 -90 8 -8 6 -11 -7 -11 -17 0 -17 -2 -3 -23 13 -20 13 -25
1 -33 -10 -6 -11 -13 -4 -24 8 -13 10 -12 10 3 0 9 5 17 10 17 7 0 7 -6 0 -20
-13 -24 -30 -26 -30 -5 0 8 -5 15 -11 15 -6 0 -9 -6 -6 -12 2 -7 19 -52 36
-101 l32 -87 -22 -33 c-12 -17 -36 -47 -53 -65 -19 -21 -24 -31 -13 -27 12 5
17 2 18 -11 0 -11 3 -14 6 -6 2 6 9 12 14 12 4 0 6 -7 3 -15 -3 -8 -1 -28 4
-44 8 -24 7 -37 -9 -67 -10 -21 -19 -44 -19 -51 0 -22 -29 -27 -50 -8 -25 22
-52 12 -48 -17 2 -16 11 -24 28 -26 25 -4 50 -19 50 -31 0 -7 -31 -13 -72 -14
-15 0 -25 -4 -22 -8 5 -9 -9 -13 -36 -10 -12 1 -12 0 -2 -7 10 -7 10 -11 -3
-22 -13 -11 -15 -9 -15 11 0 13 12 66 26 117 l27 93 -28 29 c-34 36 -47 108
-21 122 12 7 16 17 11 37 -4 19 1 36 20 61 14 18 25 35 25 36 0 7 -53 -5 -63
-15 -16 -16 -27 -14 -21 4 4 8 10 13 14 10 5 -3 11 -1 15 5 3 5 21 10 39 10
26 0 39 7 60 34 l26 34 -43 -4 -42 -3 44 9 c53 11 82 34 57 43 -9 4 -15 3 -15
-1 4 -22 -3 -24 -17 -4 -8 12 -19 20 -24 17 -5 -3 -11 -1 -14 4 -3 5 -15 7
-25 4 -16 -4 -19 -1 -14 16 3 12 15 23 27 26 42 8 85 11 84 6 -2 -21 4 -30 20
-28 17 1 17 3 0 51 -17 51 -16 130 2 150 5 5 6 16 3 25 -3 12 -2 13 4 3 5 -7
19 -14 31 -17z m507 15 c3 -5 1 -10 -4 -10 -6 0 -11 5 -11 10 0 6 2 10 4 10 3
0 8 -4 11 -10z m139 2 c2 -4 -4 -9 -15 -9 -11 -1 -17 2 -14 8 7 11 22 12 29 1z
m159 -31 c-4 -16 -8 -17 -18 -8 -10 10 -10 13 4 19 9 4 17 7 18 7 0 1 -1 -8
-4 -18z m467 15 c0 -2 -11 -6 -25 -8 -14 -3 -25 -1 -25 3 0 5 11 9 25 9 14 0
25 -2 25 -4z m-804 -41 c-14 -14 -16 -14 -16 -2 0 9 6 17 13 20 19 7 21 -1 3
-18z m154 15 c0 -5 -2 -10 -4 -10 -3 0 -8 5 -11 10 -3 6 -1 10 4 10 6 0 11 -4
11 -10z m61 -10 c12 0 19 -7 18 -17 0 -11 -3 -13 -6 -5 -2 6 -9 12 -14 12 -5
0 -4 -10 3 -22 16 -29 17 -40 5 -56 -7 -9 -6 -11 7 -6 11 4 16 1 16 -13 0 -25
-19 -43 -44 -44 -12 0 -15 -3 -8 -6 7 -3 20 -1 30 3 9 4 28 8 42 8 20 1 26 7
31 39 7 44 19 61 19 27 0 -29 5 -24 14 13 4 19 3 26 -4 22 -5 -3 -10 -2 -10 3
0 14 29 36 37 28 3 -3 2 -6 -4 -6 -5 0 -10 -13 -10 -30 0 -16 4 -27 9 -24 4 3
8 15 8 27 0 17 2 19 9 7 6 -8 7 -18 5 -22 -3 -4 -2 -8 3 -8 4 0 17 -13 28 -28
13 -19 14 -23 3 -14 -14 12 -16 10 -11 -9 4 -15 3 -20 -5 -15 -7 4 -12 16 -12
26 0 10 -4 21 -9 24 -5 4 -8 -5 -7 -18 2 -14 0 -24 -3 -23 -13 3 -59 -35 -64
-53 -6 -22 18 -28 26 -7 3 7 6 5 6 -6 1 -16 -11 -17 -141 -15 -79 1 -133 3
-120 5 12 3 20 9 17 14 -4 5 1 9 9 9 9 0 16 5 16 10 0 6 -10 10 -22 10 -21 0
-21 0 -2 15 17 13 17 14 2 15 -10 0 -22 9 -28 20 -8 15 -6 24 9 39 10 10 21
25 24 32 4 10 6 9 6 -3 1 -9 -7 -22 -16 -28 -12 -7 -13 -10 -3 -7 8 2 22 0 32
-4 11 -6 18 -4 22 6 3 8 12 12 21 9 11 -5 15 0 14 17 0 23 -1 23 -9 4 -8 -17
-8 -16 -7 7 1 15 8 30 16 33 9 3 12 3 9 -1 -10 -9 11 -46 22 -39 6 3 5 16 0
31 -10 25 -13 50 -3 27 2 -7 13 -13 24 -13z m706 14 c-3 -3 -12 -4 -19 -1 -8
3 -5 6 6 6 11 1 17 -2 13 -5z m-1560 -10 c-3 -3 -12 -4 -19 -1 -8 3 -5 6 6 6
11 1 17 -2 13 -5z m759 -27 c8 -4 14 -12 14 -17 0 -6 -9 -2 -20 7 -11 10 -20
24 -19 33 0 13 1 13 6 0 3 -8 12 -19 19 -23z m135 -3 c-9 -28 -9 -29 -10 -3
-1 14 2 29 6 32 11 12 13 2 4 -29z m622 29 c-7 -2 -21 -2 -30 0 -10 3 -4 5 12
5 17 0 24 -2 18 -5z m-822 -26 c-10 -9 -11 -8 -5 6 3 10 9 15 12 12 3 -3 0
-11 -7 -18z m259 13 c0 -5 -7 -10 -15 -10 -8 0 -15 5 -15 10 0 6 7 10 15 10 8
0 15 -4 15 -10z m523 -7 c-13 -2 -33 -2 -45 0 -13 2 -3 4 22 4 25 0 35 -2 23
-4z m115 0 c-15 -2 -42 -2 -60 0 -18 2 -6 4 27 4 33 0 48 -2 33 -4z m-942 -40
c-10 -10 -19 5 -10 18 6 11 8 11 12 0 2 -7 1 -15 -2 -18z m855 -66 c-5 -22
-14 -14 -16 15 -1 12 -9 22 -19 24 -19 3 -46 22 -46 34 0 4 14 7 31 8 17 0 34
4 38 7 8 8 18 -63 12 -88z m-1281 73 c0 -5 -4 -10 -10 -10 -5 0 -10 5 -10 10
0 6 5 10 10 10 6 0 10 -4 10 -10z m698 -19 c10 -6 8 -13 -8 -32 -19 -22 -20
-22 -11 -2 15 29 14 33 -6 26 -11 -4 -14 -3 -9 5 8 14 16 15 34 3z m-678 -21
c0 -4 -7 -13 -15 -20 -9 -8 -15 -8 -15 -2 0 6 -3 17 -6 25 -4 12 0 14 15 10
12 -3 21 -9 21 -13z m1440 0 c0 -5 -2 -10 -4 -10 -3 0 -8 5 -11 10 -3 6 -1 10
4 10 6 0 11 -4 11 -10z m140 -6 c0 -8 -5 -12 -10 -9 -6 4 -8 11 -5 16 9 14 15
11 15 -7z m-1743 0 c-3 -3 -12 -4 -19 -1 -8 3 -5 6 6 6 11 1 17 -2 13 -5z
m1571 -77 c3 -22 -1 -27 -17 -27 -17 0 -21 6 -21 31 0 24 4 30 18 27 10 -2 18
-14 20 -31z m80 -27 l0 -25 -8 25 c-4 14 -8 34 -8 45 l-1 20 9 -20 c5 -11 8
-31 8 -45z m-28 25 c0 -19 -5 -25 -22 -24 -13 0 -18 3 -11 5 7 3 9 12 6 21 -4
11 -2 14 5 9 7 -4 12 -2 12 3 0 6 2 11 5 11 3 0 5 -11 5 -25z m-690 11 c0 -2
-8 -10 -17 -17 -16 -13 -17 -12 -4 4 13 16 21 21 21 13z m-357 -12 c-7 -3 -9
-12 -6 -20 3 -8 0 -14 -6 -14 -6 0 -11 9 -11 20 0 13 6 20 18 19 9 0 12 -3 5
-5z m-386 -28 c-17 -13 -6 -46 16 -46 8 0 8 3 -1 9 -18 11 29 24 52 15 22 -8
20 -25 -1 -17 -17 5 -17 5 -1 -8 11 -9 16 -26 15 -49 -2 -32 -5 -35 -35 -38
-18 -2 -30 -7 -27 -13 4 -5 2 -17 -4 -26 -8 -16 -11 -15 -21 11 -6 16 -13 26
-16 23 -3 -3 -1 -14 5 -25 6 -12 11 -27 11 -34 0 -15 -45 77 -54 113 -5 16 0
13 13 -11 24 -41 28 -23 6 21 -9 16 -13 35 -10 42 4 7 -1 3 -10 -8 -16 -20
-17 -20 -13 5 2 17 14 31 37 42 36 18 65 13 38 -6z m1383 -10 c0 -2 -7 -7 -16
-10 -8 -3 -12 -2 -9 4 6 10 25 14 25 6z m297 -28 c-3 -8 -6 -5 -6 6 -1 11 2
17 5 13 3 -3 4 -12 1 -19z m-1505 -13 c1 -11 8 -23 13 -27 6 -4 2 -8 -7 -8
-14 0 -18 8 -18 32 0 34 6 35 12 3z m1295 -7 c-3 -7 -5 -2 -5 12 0 14 2 19 5
13 2 -7 2 -19 0 -25z m-1257 2 c0 -5 -2 -10 -4 -10 -3 0 -8 5 -11 10 -3 6 -1
10 4 10 6 0 11 -4 11 -10z m1158 -25 c-3 -37 -28 -41 -28 -5 0 20 5 30 15 30
10 0 14 -9 13 -25z m-1645 8 c-7 -2 -19 -2 -25 0 -7 3 -2 5 12 5 14 0 19 -2
13 -5z m-80 -10 c-7 -2 -19 -2 -25 0 -7 3 -2 5 12 5 14 0 19 -2 13 -5z m834
-26 c-29 -9 -43 -5 -33 11 3 5 18 7 33 4 l28 -5 -28 -10z m-843 -3 c3 -8 2
-12 -4 -9 -6 3 -10 10 -10 16 0 14 7 11 14 -7z m119 9 c-13 -2 -33 -2 -45 0
-13 2 -3 4 22 4 25 0 35 -2 23 -4z m1499 -34 c14 -8 18 -8 14 0 -5 7 28 10
106 10 76 0 115 -4 120 -12 6 -9 8 -9 8 1 0 7 13 12 30 12 17 0 30 -4 30 -10
0 -5 8 -6 17 -3 13 5 15 2 10 -12 -6 -15 -5 -16 7 -6 11 9 16 9 22 0 4 -8 3
-9 -4 -5 -15 9 -15 1 -1 -26 11 -20 11 -20 36 4 15 12 23 18 19 11 -9 -17
-206 -173 -217 -173 -12 0 -11 14 2 27 6 6 18 9 25 6 26 -10 4 23 -24 38 -15
8 -30 18 -34 24 -5 6 -18 5 -39 -2 -40 -15 -52 -8 -15 8 33 15 34 31 1 23 -19
-5 -25 -2 -25 10 0 17 -47 52 -57 43 -3 -4 0 -14 8 -24 15 -18 14 -18 -39 4
-8 3 -10 0 -6 -11 7 -18 -3 -20 -26 -6 -8 5 -11 12 -7 16 4 4 0 15 -9 25 -29
32 4 51 48 28z m-1687 -19 c-10 -11 -21 -17 -24 -14 -3 3 3 12 13 20 28 20 32
17 11 -6z m85 16 c0 -2 -7 -7 -16 -10 -8 -3 -12 -2 -9 4 6 10 25 14 25 6z
m670 -36 c0 -5 -4 -10 -10 -10 -5 0 -10 5 -10 10 0 6 5 10 10 10 6 0 10 -4 10
-10z m480 -47 c-3 -21 -11 -47 -17 -58 -12 -22 -32 -136 -36 -202 -2 -43 -18
-44 -20 -2 -2 75 33 248 58 290 14 21 22 6 15 -28z m-1235 7 c3 -5 -1 -10 -9
-10 -8 0 -18 5 -21 10 -3 6 1 10 9 10 8 0 18 -4 21 -10z m765 -6 c0 -8 -4 -12
-10 -9 -5 3 -10 10 -10 16 0 5 5 9 10 9 6 0 10 -7 10 -16z m384 -36 c-8 -29
-14 -94 -14 -145 0 -55 -4 -93 -10 -93 -5 0 -11 16 -11 35 -3 57 -4 60 -14 67
-5 4 -10 41 -10 82 0 41 -3 68 -8 60 -10 -17 -11 -139 -1 -156 5 -10 4 -10 -6
-1 -18 16 -19 145 -1 166 7 9 17 15 21 12 4 -3 13 2 20 10 7 8 20 15 30 15 16
0 16 -4 4 -52z m301 -115 c-3 -24 -10 -45 -15 -48 -6 -3 -8 6 -5 22 2 15 8 64
12 108 l8 80 3 -60 c2 -33 1 -79 -3 -102z m645 153 c0 -2 -8 -10 -17 -17 -16
-13 -17 -12 -4 4 13 16 21 21 21 13z m-820 -148 c-12 -40 -27 -91 -32 -113
-17 -66 -18 -68 -24 -62 -10 10 18 161 37 196 10 20 19 43 19 53 0 9 3 25 8
35 18 45 12 -41 -8 -109z m-233 75 c-3 -16 1 -63 9 -107 9 -43 13 -80 11 -83
-15 -15 -46 169 -34 201 10 26 20 18 14 -11z m529 -28 c-4 -25 -11 -45 -17
-45 -11 0 -11 2 2 56 14 56 24 50 15 -11z m94 45 c0 -5 -4 -10 -9 -10 -6 0
-13 5 -16 10 -3 6 1 10 9 10 9 0 16 -4 16 -10z m-1585 -10 c3 -6 -1 -7 -9 -4
-18 7 -21 14 -7 14 6 0 13 -4 16 -10z m1155 -31 c-12 -41 -24 -53 -14 -14 7
32 13 45 19 45 2 0 0 -14 -5 -31z m579 17 c9 -11 9 -19 -1 -35 -17 -28 -30
-27 -27 2 2 12 0 28 -4 35 -11 17 18 16 32 -2z m146 -31 c-27 -24 -52 -42 -54
-39 -3 2 5 12 18 20 12 9 34 27 49 40 15 13 29 23 32 23 3 0 -17 -20 -45 -44z
m-1551 -10 c-9 -23 -31 -25 -50 -4 -17 19 -17 20 4 26 12 3 22 10 22 17 0 6 7
3 15 -7 7 -11 11 -25 9 -32z m598 -5 c-2 -22 -6 -40 -8 -40 -2 0 -4 18 -4 40
0 22 3 40 8 40 4 0 6 -18 4 -40z m718 8 c0 -6 -7 -5 -15 2 -8 7 -15 17 -15 22
0 6 7 5 15 -2 8 -7 15 -17 15 -22z m40 -15 c0 -30 -2 -34 -15 -23 -8 7 -15 25
-15 41 0 21 4 27 15 23 9 -4 15 -19 15 -41z m-155 -5 c-4 -24 -14 -54 -22 -68
-10 -19 -12 -20 -9 -5 3 11 10 41 17 68 14 59 23 62 14 5z m-203 -60 c-6 -6
-11 -1 -15 11 -3 12 -1 24 4 27 5 3 10 15 11 27 1 12 3 5 5 -17 3 -21 0 -43
-5 -48z m-792 56 c0 16 65 -34 68 -52 2 -14 11 -22 23 -22 24 0 24 -17 2 -42
-14 -16 -15 -24 -5 -51 8 -20 8 -35 2 -41 -6 -6 -10 -14 -10 -18 0 -13 28 -9
33 5 3 7 6 5 6 -5 1 -12 -6 -18 -19 -18 -19 0 -20 -7 -22 -132 l-2 -133 -5
125 c-6 120 -13 151 -46 190 -8 8 -21 51 -30 95 -8 44 -18 89 -22 100 -5 17
-4 18 11 6 9 -7 16 -11 16 -7z m-210 -14 c0 -5 -4 -10 -10 -10 -5 0 -10 5 -10
10 0 6 5 10 10 10 6 0 10 -4 10 -10z m1081 -47 c-9 -15 -10 -14 -7 7 3 14 5
32 7 40 1 8 4 5 6 -7 2 -12 0 -30 -6 -40z m-1097 18 c25 -26 26 -30 11 -45 -9
-9 -22 -16 -28 -16 -9 0 -9 2 0 8 8 5 8 16 -2 45 -7 20 -12 37 -11 37 1 0 15
-13 30 -29z m892 -50 c-12 -44 -24 -83 -28 -86 -7 -7 30 144 38 157 13 20 10
2 -10 -71z m-269 37 c-3 -8 -6 -5 -6 6 -1 11 2 17 5 13 3 -3 4 -12 1 -19z
m-114 -13 c-3 -9 -8 -14 -10 -11 -3 3 -2 9 2 15 9 16 15 13 8 -4z m1234 -27
c-3 -7 -5 -2 -5 12 0 14 2 19 5 13 2 -7 2 -19 0 -25z m-691 -15 c-10 -10 -19
5 -10 18 6 11 8 11 12 0 2 -7 1 -15 -2 -18z m-135 -24 c-5 -13 -10 -19 -10
-12 -1 15 10 45 15 40 3 -2 0 -15 -5 -28z m-174 -31 c-3 -8 -6 -5 -6 6 -1 11
2 17 5 13 3 -3 4 -12 1 -19z m-393 -13 c3 -8 1 -15 -4 -15 -6 0 -10 7 -10 15
0 8 2 15 4 15 2 0 6 -7 10 -15z m627 -8 c-10 -9 -11 -8 -5 6 3 10 9 15 12 12
3 -3 0 -11 -7 -18z m347 -152 c-3 -3 -9 2 -12 12 -6 14 -5 15 5 6 7 -7 10 -15
7 -18z m-856 -19 c2 -19 0 -32 -4 -30 -8 5 -12 64 -4 64 2 0 6 -15 8 -34z
m-1052 -106 c0 -5 -10 -10 -22 -10 -19 0 -20 2 -8 10 19 13 30 13 30 0z m67 4
c-3 -3 -12 -4 -19 -1 -8 3 -5 6 6 6 11 1 17 -2 13 -5z m128 -64 c-3 -5 -11
-10 -16 -10 -6 0 -7 5 -4 10 3 6 11 10 16 10 6 0 7 -4 4 -10z m682 -22 c-3 -7
-5 -2 -5 12 0 14 2 19 5 13 2 -7 2 -19 0 -25z m-759 -45 c2 -36 2 -36 -17 -18
-21 18 -23 35 -6 47 17 13 20 9 23 -29z m90 -8 c26 -1 38 -7 40 -18 2 -10 -1
-17 -6 -17 -6 0 -8 -9 -5 -20 4 -15 2 -19 -10 -14 -10 3 -17 -1 -20 -13 -3
-10 -5 -1 -6 19 -1 25 -5 37 -13 35 -7 -1 -12 4 -10 11 1 6 -2 12 -7 12 -5 0
-12 -6 -14 -12 -3 -8 -6 -6 -6 5 -1 9 -5 17 -11 17 -5 0 -10 7 -10 17 0 14 2
14 20 -2 12 -11 38 -20 58 -20z m-291 -7 c-3 -7 -5 -2 -5 12 0 14 2 19 5 13 2
-7 2 -19 0 -25z m110 4 c-18 -4 -17 -5 4 -28 12 -13 25 -21 29 -19 4 3 13 -2
20 -10 11 -13 9 -15 -9 -12 -12 2 -31 11 -42 20 -10 9 -24 17 -29 17 -6 0 -10
6 -10 14 0 8 -8 16 -17 19 -10 2 2 4 27 4 25 0 37 -2 27 -5z m60 -34 c-3 -8
-6 -5 -6 6 -1 11 2 17 5 13 3 -3 4 -12 1 -19z m191 -3 c-3 -3 -9 2 -12 12 -6
14 -5 15 5 6 7 -7 10 -15 7 -18z m-291 -11 c14 4 14 3 -1 -7 -11 -7 -31 -22
-44 -35 l-24 -23 7 23 c4 13 9 31 12 41 4 14 8 16 19 6 7 -6 22 -9 31 -5z
m163 -10 c0 -2 -9 0 -20 6 -11 6 -20 13 -20 16 0 2 9 0 20 -6 11 -6 20 -13 20
-16z m40 5 c0 -14 -16 -11 -29 5 -10 12 -8 13 8 9 12 -3 21 -9 21 -14z m583 2
c8 -8 -28 -11 -138 -11 -92 0 -145 4 -139 9 19 19 258 21 277 2z m-350 -8 c-7
-2 -19 -2 -25 0 -7 3 -2 5 12 5 14 0 19 -2 13 -5z m50 0 c-7 -2 -19 -2 -25 0
-7 3 -2 5 12 5 14 0 19 -2 13 -5z m-466 -35 c-3 -7 -5 -2 -5 12 0 14 2 19 5
13 2 -7 2 -19 0 -25z m43 7 c0 -8 -4 -17 -10 -20 -6 -4 -10 5 -10 20 0 15 4
24 10 20 6 -3 10 -12 10 -20z m244 9 c3 -8 2 -12 -4 -9 -6 3 -10 10 -10 16 0
14 7 11 14 -7z"/>
<path d="M825 2422 c-11 -3 -23 -9 -27 -16 -5 -7 -8 -6 -9 4 -2 23 -18 -61
-18 -98 -1 -18 3 -31 8 -28 5 3 4 -12 -1 -34 -13 -48 -8 -55 36 -52 36 3 62
-18 53 -42 -3 -7 1 -23 9 -35 16 -23 39 -29 31 -8 -2 6 -10 11 -17 9 -10 -2
-11 0 -3 10 13 16 -1 58 -18 58 -7 0 -9 3 -5 7 4 4 15 8 24 8 14 0 17 11 19
63 0 34 4 69 7 77 3 8 1 15 -5 15 -6 0 -9 8 -8 18 1 9 1 22 0 28 -1 13 -45 22
-76 16z m5 -41 c0 -4 11 -6 25 -3 24 4 25 3 25 -54 0 -31 -3 -54 -6 -51 -4 3
-15 2 -25 -3 -12 -7 -20 -7 -24 0 -4 6 -11 8 -16 5 -5 -4 -9 20 -9 54 0 48 3
61 15 61 8 0 15 -4 15 -9z m38 -150 c2 -6 -8 -11 -27 -11 -20 0 -31 5 -31 14
0 18 52 15 58 -3z"/>
<path d="M910 2131 c0 -5 5 -13 10 -16 6 -3 10 -2 10 4 0 5 -4 13 -10 16 -5 3
-10 2 -10 -4z"/>
<path d="M722 1850 c0 -14 2 -19 5 -12 2 6 2 18 0 25 -3 6 -5 1 -5 -13z"/>
<path d="M723 1725 c0 -27 2 -38 4 -22 2 15 2 37 0 50 -2 12 -4 0 -4 -28z"/>
<path d="M744 1680 c0 -11 4 -20 8 -20 4 0 8 9 8 20 0 11 -4 20 -8 20 -4 0 -8
-9 -8 -20z"/>
<path d="M690 1590 c0 -5 5 -10 10 -10 6 0 10 5 10 10 0 6 -4 10 -10 10 -5 0
-10 -4 -10 -10z"/>
<path d="M950 1591 c0 -6 4 -13 10 -16 6 -3 7 1 4 9 -7 18 -14 21 -14 7z"/>
<path d="M1025 1491 c-3 -5 -2 -12 3 -15 5 -3 9 1 9 9 0 17 -3 19 -12 6z"/>
<path d="M920 1390 c0 -5 5 -10 11 -10 5 0 7 5 4 10 -3 6 -8 10 -11 10 -2 0
-4 -4 -4 -10z"/>
<path d="M937 1376 c-15 -12 -15 -14 -2 -19 8 -4 12 -13 9 -22 -7 -17 4 -19
24 -6 11 7 10 9 -3 15 -9 3 -13 10 -10 16 4 6 11 8 16 5 5 -3 6 1 3 9 -7 19
-14 19 -37 2z"/>
<path d="M990 1282 c0 -4 10 -13 23 -21 20 -13 21 -13 9 1 -10 13 -10 17 0 21
7 3 3 6 -9 6 -13 1 -23 -2 -23 -7z"/>
<path d="M1041 2254 c0 -11 3 -14 6 -6 3 7 2 16 -1 19 -3 4 -6 -2 -5 -13z"/>
<path d="M1460 2246 c0 -2 8 -10 18 -17 15 -13 16 -12 3 4 -13 16 -21 21 -21
13z"/>
<path d="M1660 2188 c0 -7 5 -20 10 -28 8 -12 10 -11 10 7 0 12 -4 25 -10 28
-5 3 -10 0 -10 -7z"/>
<path d="M1570 2160 c0 -5 9 -10 21 -10 11 0 17 5 14 10 -3 6 -13 10 -21 10
-8 0 -14 -4 -14 -10z"/>
<path d="M2270 2000 c0 -5 5 -10 11 -10 5 0 7 5 4 10 -3 6 -8 10 -11 10 -2 0
-4 -4 -4 -10z"/>
<path d="M1307 1909 c7 -7 15 -10 18 -7 3 3 -2 9 -12 12 -14 6 -15 5 -6 -5z"/>
<path d="M1560 1794 c0 -8 5 -12 10 -9 6 4 8 11 5 16 -9 14 -15 11 -15 -7z"/>
<path d="M1200 1790 c0 -5 5 -10 11 -10 5 0 7 5 4 10 -3 6 -8 10 -11 10 -2 0
-4 -4 -4 -10z"/>
<path d="M2221 1484 c0 -11 3 -14 6 -6 3 7 2 16 -1 19 -3 4 -6 -2 -5 -13z"/>
<path d="M680 1370 c0 -5 4 -10 9 -10 6 0 13 5 16 10 3 6 -1 10 -9 10 -9 0
-16 -4 -16 -10z"/>
<path d="M555 970 c3 -25 7 -54 9 -65 3 -11 5 -23 5 -27 1 -5 5 -8 10 -8 9 0
-1 64 -19 115 -9 27 -10 26 -5 -15z"/>
<path d="M562 730 c0 -14 2 -19 5 -12 2 6 2 18 0 25 -3 6 -5 1 -5 -13z"/>
<path d="M552 680 c-18 -29 -15 -38 4 -12 9 13 14 25 12 27 -2 2 -9 -5 -16
-15z"/>
<path d="M1330 1330 c6 -11 15 -20 20 -20 21 0 5 33 -18 38 -10 2 -10 -2 -2
-18z"/>
<path d="M1370 1300 c0 -5 5 -10 11 -10 5 0 7 5 4 10 -3 6 -8 10 -11 10 -2 0
-4 -4 -4 -10z"/>
<path d="M1486 1294 c-5 -14 -4 -15 9 -4 17 14 19 20 6 20 -5 0 -12 -7 -15
-16z"/>
<path d="M1300 1278 c0 -13 4 -17 13 -12 10 6 10 4 0 -7 -18 -18 -16 -34 2
-19 8 7 15 18 15 25 0 8 8 15 18 17 10 3 4 6 -15 9 -28 5 -33 2 -33 -13z"/>
<path d="M2010 1370 c-9 -6 -10 -10 -3 -10 6 0 15 5 18 10 8 12 4 12 -15 0z"/>
<path d="M2170 1255 c0 -8 2 -15 4 -15 2 0 6 7 10 15 3 8 1 15 -4 15 -6 0 -10
-7 -10 -15z"/>
<path d="M787 1193 c-10 -9 -9 -23 1 -23 5 0 9 7 9 15 0 17 -1 18 -10 8z"/>
<path d="M2030 1080 c-9 -6 -10 -10 -3 -10 6 0 15 5 18 10 8 12 4 12 -15 0z"/>
<path d="M2120 1081 c0 -9 30 -24 36 -18 2 1 -6 8 -16 15 -11 7 -20 8 -20 3z"/>
<path d="M2409 1050 c0 -3 -2 -18 -3 -33 -3 -25 -1 -26 12 -14 11 11 12 19 3
33 -6 11 -11 17 -12 14z"/>
<path d="M2318 999 c-3 -8 2 -24 10 -37 16 -24 33 -18 52 19 8 15 6 17 -18 14
-15 -1 -30 2 -33 7 -4 6 -8 5 -11 -3z m38 -26 c-3 -21 -11 -23 -23 -5 -8 14
-7 18 7 18 10 0 17 -6 16 -13z"/>
<path d="M2285 960 c3 -5 14 -10 23 -10 15 0 15 2 2 10 -20 13 -33 13 -25 0z"/>
<path d="M1502 870 c0 -14 2 -19 5 -12 2 6 2 18 0 25 -3 6 -5 1 -5 -13z"/>
<path d="M1066 691 c-4 -6 -2 -11 4 -11 6 0 8 -4 5 -10 -3 -5 -1 -10 4 -10 13
0 14 10 2 29 -6 9 -11 10 -15 2z"/>
<path d="M1435 2590 c3 -5 8 -10 11 -10 2 0 4 5 4 10 0 6 -5 10 -11 10 -5 0
-7 -4 -4 -10z"/>
<path d="M38 887 c-4 -9 -13 -16 -20 -15 -10 2 -14 -29 -16 -134 l-3 -138 23
9 c18 6 24 19 29 52 5 36 6 38 7 13 1 -18 11 -42 23 -55 l20 -24 -5 35 c-11
78 -23 130 -34 142 -6 8 -12 41 -14 73 -2 37 -6 53 -10 42z"/>
<path d="M147 586 c-4 -10 0 -12 14 -9 14 4 19 0 19 -14 0 -11 7 -20 14 -20
12 0 11 7 -5 29 -23 31 -34 35 -42 14z"/>
<path d="M362 575 c-6 -14 -8 -25 -3 -25 8 0 23 41 17 47 -1 2 -8 -8 -14 -22z"/>
<path d="M85 549 c-4 -6 -5 -12 -2 -15 2 -3 7 2 10 11 7 17 1 20 -8 4z"/>
<path d="M112 539 c-7 -10 -8 -19 -3 -19 13 0 33 28 23 33 -4 3 -13 -3 -20
-14z"/>
<path d="M126 491 c-4 -7 -5 -15 -2 -18 9 -9 19 4 14 18 -4 11 -6 11 -12 0z"/>
<path d="M209 473 c-13 -16 -12 -17 4 -4 9 7 17 15 17 17 0 8 -8 3 -21 -13z"/>
<path d="M638 363 c-6 -7 -13 -11 -17 -9 -4 3 -13 1 -21 -4 -10 -6 -4 -8 18
-6 17 1 35 5 38 9 4 4 25 7 46 7 21 0 38 4 38 8 0 13 -91 8 -102 -5z"/>
<path d="M493 353 c9 -2 23 -2 30 0 6 3 -1 5 -18 5 -16 0 -22 -2 -12 -5z"/>
</g>
</svg>
